<svg xmlns="http://www.w3.org/2000/svg" width="800" height="450" viewBox="0 0 800 450" role="img" aria-label="Minh họa ly cà phê phin">
<title>Ly cà phê phin</title>
<rect width="800" height="450" fill="#D9E8F8"/>
<rect y="330" width="800" height="120" fill="#BFD7F0"/>
<ellipse cx="400" cy="352" rx="220" ry="34" fill="#9DC0E8"/>
<ellipse cx="400" cy="340" rx="220" ry="34" fill="#FFFFFF"/>
<ellipse cx="400" cy="336" rx="150" ry="24" fill="#F4D7CB"/>
<path d="M270 190 h260 v40 a130 90 0 0 1 -260 0 Z" fill="#FFFFFF"/>
<path d="M270 190 h260 v18 H270 Z" fill="#4346C2"/>
<ellipse cx="400" cy="190" rx="130" ry="26" fill="#5457D6"/>
<ellipse cx="400" cy="190" rx="108" ry="19" fill="#1C1E2C"/>
<path d="M400 176 c-14 8 -14 20 0 26 c14 -6 14 -18 0 -26 Z" fill="#F4D7CB"/>
<path d="M352 178 c8 -2 16 0 20 6 M428 196 c-8 2 -16 0 -20 -6" stroke="#F4D7CB" stroke-width="5" stroke-linecap="round" fill="none"/>
<path d="M530 205 c44 6 66 22 62 52 c-4 28 -34 44 -70 40" fill="none" stroke="#FFFFFF" stroke-width="26" stroke-linecap="round"/>
<path d="M322 132 c-10 -14 6 -20 0 -34 M400 124 c-10 -14 6 -20 0 -34 M478 132 c-10 -14 6 -20 0 -34" stroke="#5B5E74" stroke-width="10" stroke-linecap="round" fill="none"/>
<g fill="#5E9BD6">
<ellipse cx="150" cy="120" rx="30" ry="22" transform="rotate(-24 150 120)"/>
<ellipse cx="652" cy="110" rx="30" ry="22" transform="rotate(20 652 110)"/>
<ellipse cx="680" cy="330" rx="26" ry="19" transform="rotate(-14 680 330)"/>
<ellipse cx="128" cy="330" rx="26" ry="19" transform="rotate(18 128 330)"/>
</g>
<g stroke="#1C1E2C" stroke-width="5" stroke-linecap="round" fill="none">
<path d="M138 104 c8 10 8 22 0 32 M660 94 c-8 10 -8 22 0 32 M672 316 c8 8 8 18 0 26 M136 316 c-8 8 -8 18 0 26"/>
</g>
</svg>
